<svg width="32" height="60" viewBox="0 0 32 60" fill="none" xmlns="http://www.w3.org/2000/svg">
<path d="M0 0H32V60L16 47.069L0 60V0Z" fill="#380093"/>
<path d="M22 31.6171L22 33.4411L13.696 38.9291L22 38.9291L22 40.7531L10.864 40.7531L10.864 38.9291L19.152 33.4411L10.864 33.4411L10.864 31.6171L22 31.6171ZM12.352 27.3979L15.616 27.3979L15.616 23.5579L17.104 23.5579L17.104 27.3979L20.512 27.3979L20.512 23.0779L22 23.0779L22 29.2219L10.864 29.2219L10.864 23.0779L12.352 23.0779L12.352 27.3979ZM10.88 6.35125L22 9.64725L22 11.7112L13.584 14.0472L22 16.5272L22.016 18.5752L10.88 21.7272L10.88 19.7912L19.936 17.4872L10.88 14.9912L10.88 12.9432L19.888 10.6232L10.88 8.30325L10.88 6.35125Z" fill="white"/>
</svg>
