<svg width="32" height="60" viewBox="0 0 32 60" fill="none" xmlns="http://www.w3.org/2000/svg">
<path d="M0 0H32V60L16 47.069L0 60V0Z" fill="#F50000"/>
<path d="M12 37.0378L10.336 37.0378L10.336 33.7098L22 33.7098L22 35.5498L12 35.5498L12 37.0378ZM11.904 23.6841L11.904 29.0441L15.088 29.0441C14.7893 28.8201 14.5387 28.4894 14.336 28.0521C14.1333 27.6041 14.032 27.1294 14.032 26.6281C14.032 25.7321 14.224 25.0067 14.608 24.4521C14.992 23.8867 15.4773 23.4867 16.064 23.2521C16.6507 23.0067 17.2693 22.8841 17.92 22.8841C18.7093 22.8841 19.4133 23.0387 20.032 23.3481C20.64 23.6467 21.12 24.1001 21.472 24.7081C21.824 25.3054 22 26.0414 22 26.9161C22 28.0787 21.712 29.0121 21.136 29.7161C20.56 30.4201 19.7973 30.8414 18.848 30.9801L18.848 29.2041C19.3493 29.0867 19.7493 28.8254 20.048 28.4201C20.336 28.0147 20.48 27.5081 20.48 26.9001C20.48 26.1427 20.2507 25.5774 19.792 25.2041C19.3333 24.8201 18.7253 24.6281 17.968 24.6281C17.2 24.6281 16.6133 24.8201 16.208 25.2041C15.792 25.5881 15.584 26.1534 15.584 26.9001C15.584 27.4227 15.7173 27.8654 15.984 28.2281C16.24 28.5801 16.592 28.8361 17.04 28.9961L17.04 30.7241L10.304 30.7241L10.304 23.6841L11.904 23.6841ZM13.152 21.2733C12.3733 21.2733 11.7653 21.0493 11.328 20.6013C10.88 20.1426 10.656 19.556 10.656 18.8413C10.656 18.1266 10.88 17.5453 11.328 17.0973C11.7653 16.6386 12.3733 16.4093 13.152 16.4093C13.9307 16.4093 14.544 16.6386 14.992 17.0973C15.44 17.5453 15.664 18.1266 15.664 18.8413C15.664 19.556 15.44 20.1426 14.992 20.6013C14.544 21.0493 13.9307 21.2733 13.152 21.2733ZM10.864 11.5133L22 17.8973L22 19.6893L10.864 13.3053L10.864 11.5133ZM11.76 18.8413C11.76 19.5133 12.224 19.8493 13.152 19.8493C14.0907 19.8493 14.56 19.5133 14.56 18.8413C14.56 18.5213 14.448 18.276 14.224 18.1053C13.9893 17.924 13.632 17.8333 13.152 17.8333C12.224 17.8333 11.76 18.1693 11.76 18.8413ZM19.696 14.7613C18.9173 14.7613 18.3093 14.5373 17.872 14.0893C17.424 13.6306 17.2 13.044 17.2 12.3293C17.2 11.6253 17.424 11.0493 17.872 10.6013C18.3093 10.1426 18.9173 9.91331 19.696 9.91331C20.4747 9.91331 21.088 10.1426 21.536 10.6013C21.984 11.0493 22.208 11.6253 22.208 12.3293C22.208 13.044 21.984 13.6306 21.536 14.0893C21.088 14.5373 20.4747 14.7613 19.696 14.7613ZM18.304 12.3453C18.304 13.0173 18.768 13.3533 19.696 13.3533C20.624 13.3533 21.088 13.0173 21.088 12.3453C21.088 11.6733 20.624 11.3373 19.696 11.3373C18.768 11.3373 18.304 11.6733 18.304 12.3453Z" fill="white"/>
</svg>
