<svg width="235" height="175" viewBox="0 0 235 175" fill="none" xmlns="http://www.w3.org/2000/svg">
<path d="M181.08 40.476C192.257 40.476 201.318 31.4151 201.318 20.238C201.318 9.06085 192.257 0 181.08 0C169.903 0 160.842 9.06085 160.842 20.238C160.842 31.4151 169.903 40.476 181.08 40.476Z" fill="#FF5252"/>
<path d="M200.669 34.1877H34.5889V164.513H200.669V34.1877Z" fill="#F9C615"/>
<path opacity="0.1" d="M200.669 34.1877H34.5889V164.513H200.669V34.1877Z" fill="black"/>
<path d="M235 52.0653H0V165.29H235V52.0653Z" fill="#464353"/>
<path d="M186.29 20.7147H48.9688V174.1H186.29V20.7147Z" fill="#F9C615"/>
<path d="M38.6057 67.3519H9.58691V86.0068H38.6057V67.3519Z" fill="#F9C615"/>
<path d="M38.6057 98.9617H9.58691V117.617H38.6057V98.9617Z" fill="#F9C615"/>
<path d="M38.6057 130.571H9.58691V149.226H38.6057V130.571Z" fill="#F9C615"/>
<path d="M95.6066 35.7423H66.5879V54.3972H95.6066V35.7423Z" fill="#464353"/>
<path d="M95.6066 67.3519H66.5879V86.0068H95.6066V67.3519Z" fill="#464353"/>
<path d="M95.6066 98.9617H66.5879V117.617H95.6066V98.9617Z" fill="#464353"/>
<path d="M139.653 54.3972L168.672 54.3972V35.7423H139.653V54.3972Z" fill="#464353"/>
<path d="M139.653 86.0068H168.672V67.3519H139.653V86.0068Z" fill="#464353"/>
<path d="M139.653 117.617H168.672V98.9617H139.653V117.617Z" fill="#464353"/>
<path d="M223.341 67.3519H194.322V86.0068H223.341V67.3519Z" fill="#F9C615"/>
<path d="M223.341 98.9617H194.322V117.617H223.341V98.9617Z" fill="#F9C615"/>
<path d="M223.341 130.571H194.322V149.226H223.341V130.571Z" fill="#F9C615"/>
<path d="M130.325 124.353H104.934V174.099H130.325V124.353Z" fill="#464353"/>
<path opacity="0.1" d="M95.6066 35.7423H66.5879V41.4424H95.6066V35.7423Z" fill="black"/>
<path opacity="0.1" d="M168.671 35.7423H139.652V41.4424H168.671V35.7423Z" fill="black"/>
<path opacity="0.1" d="M168.671 67.3519H139.652V73.052H168.671V67.3519Z" fill="black"/>
<path opacity="0.1" d="M168.671 98.9617H139.652V104.662H168.671V98.9617Z" fill="black"/>
<path opacity="0.1" d="M95.6066 67.3519H66.5879V73.052H95.6066V67.3519Z" fill="black"/>
<path opacity="0.1" d="M95.6066 98.9617H66.5879V104.662H95.6066V98.9617Z" fill="black"/>
<path opacity="0.1" d="M38.6057 67.3519H9.58691V71.7566H38.6057V67.3519Z" fill="black"/>
<path opacity="0.1" d="M38.6057 98.9617H9.58691V103.366H38.6057V98.9617Z" fill="black"/>
<path opacity="0.1" d="M38.6057 130.571H9.58691V134.976H38.6057V130.571Z" fill="black"/>
<path opacity="0.1" d="M223.341 67.3519H194.322V71.7566H223.341V67.3519Z" fill="black"/>
<path opacity="0.1" d="M223.341 98.9617H194.322V103.366H223.341V98.9617Z" fill="black"/>
<path opacity="0.1" d="M223.341 130.571H194.322V134.976H223.341V130.571Z" fill="black"/>
</svg>
