<svg width="503" height="367" viewBox="0 0 503 367" fill="none" xmlns="http://www.w3.org/2000/svg">
<path d="M369.937 0.208817H0.157227V237.032H369.937V0.208817Z" fill="#E6E6E6"/>
<path d="M359.363 29.9132H10.7314V223.022H359.363V29.9132Z" fill="white"/>
<path d="M369.78 0H0V15.7096H369.78V0Z" fill="#F9C615"/>
<path d="M11.6734 10.9432C13.2814 10.9432 14.585 9.63964 14.585 8.03158C14.585 6.42352 13.2814 5.11993 11.6734 5.11993C10.0653 5.11993 8.76172 6.42352 8.76172 8.03158C8.76172 9.63964 10.0653 10.9432 11.6734 10.9432Z" fill="white"/>
<path d="M22.7261 10.9432C24.3342 10.9432 25.6377 9.63964 25.6377 8.03158C25.6377 6.42352 24.3342 5.11993 22.7261 5.11993C21.118 5.11993 19.8145 6.42352 19.8145 8.03158C19.8145 9.63964 21.118 10.9432 22.7261 10.9432Z" fill="white"/>
<path d="M33.7779 10.9432C35.3859 10.9432 36.6895 9.63964 36.6895 8.03158C36.6895 6.42352 35.3859 5.11993 33.7779 5.11993C32.1698 5.11993 30.8662 6.42352 30.8662 8.03158C30.8662 9.63964 32.1698 10.9432 33.7779 10.9432Z" fill="white"/>
<path d="M121.814 45.7963H53.627V119.773H121.814V45.7963Z" fill="#E6E6E6"/>
<path d="M219.14 45.7963H150.953V119.773H219.14V45.7963Z" fill="#E6E6E6"/>
<path d="M316.467 45.7963H248.279V119.773H316.467V45.7963Z" fill="#E6E6E6"/>
<path d="M121.814 133.164H53.627V207.141H121.814V133.164Z" fill="#E6E6E6"/>
<path d="M219.14 133.164H150.953V207.141H219.14V133.164Z" fill="#E6E6E6"/>
<path d="M316.467 133.164H248.279V207.141H316.467V133.164Z" fill="#E6E6E6"/>
<path d="M167.434 152.176L179.892 147.251L181.341 171.878C181.341 171.878 183.949 179.411 183.08 182.309C183.08 182.309 183.659 187.234 182.21 187.524C180.762 187.813 176.705 188.393 176.416 188.103C176.126 187.813 176.126 186.944 176.126 186.944C176.126 186.944 173.229 188.972 172.939 191.29C172.939 191.29 160.77 195.057 160.48 191.58C160.191 188.103 166.565 185.206 166.565 185.206L171.49 177.673L167.434 152.176Z" fill="white"/>
<path d="M193.8 152.176L206.259 147.251L207.707 171.878C207.707 171.878 210.315 179.411 209.446 182.309C209.446 182.309 210.025 187.234 208.577 187.524C207.128 187.813 203.072 188.393 202.782 188.103C202.492 187.813 202.492 186.944 202.492 186.944C202.492 186.944 199.595 188.972 199.305 191.29C199.305 191.29 187.136 195.057 186.847 191.58C186.557 188.103 192.931 185.206 192.931 185.206L197.856 177.673L193.8 152.176Z" fill="white"/>
<path d="M195.019 57.0735C195.019 57.0735 192.366 64.4858 195.439 67.8286L192.877 76.6339C192.877 76.6339 201.982 103.947 199.38 107.762C199.38 107.762 189.669 112.618 170.246 106.028L178.137 75.42L177.009 62.5004L178.57 56.4308L182.038 56.084C182.038 56.084 179.957 63.8877 183.773 65.1017C187.588 66.3156 191.31 56.2787 191.31 56.2787L195.019 57.0735Z" fill="#E53935"/>
<path d="M72.5088 104.925L75.8565 106.295L91.8341 85.2956L96.8556 109.947L100.203 109.338C102.351 88.0855 104.102 66.4081 101.953 56.1555L89.5515 55.623L83.9213 73.5787L81.1823 85.7521L72.5088 104.925Z" fill="white"/>
<path d="M275.691 55.9852C275.691 55.9852 271.122 62.3368 271.345 64.8998C271.568 67.4627 274.465 109.25 274.465 109.25L281.262 109.584L279.257 79.4976L280.928 71.363L285.051 109.25L293.409 109.473L285.943 60.3311L284.494 55.9852L275.691 55.9852Z" fill="white"/>
<path d="M301.513 158.309C300.3 156.853 298.215 156.066 296.212 155.641C296.272 155.459 290.122 154.189 290.019 154.45L287.701 152.604L280.581 156.302L276.579 153.578L274.72 154.237C274.796 153.91 268.95 154.922 268.95 154.922C267.833 154.962 266.406 155.032 264.81 155.155C259.218 155.585 258.788 170.065 258.788 170.065C261.361 169.013 264.104 168.439 266.883 168.371L268.394 185.693C276.167 185.026 284.32 185.802 292.767 187.7L296.73 174.084L305.958 170.496C305.958 170.496 304.381 161.75 301.513 158.309Z" fill="#3F3D56"/>
<path d="M103.492 150.062C102.492 148.862 100.774 148.214 99.1241 147.863C99.1736 147.713 94.1061 146.667 94.0213 146.882L92.1115 145.361L86.2444 148.408L82.9471 146.163L81.4154 146.707C81.4778 146.437 76.6607 147.271 76.6607 147.271C75.7406 147.304 74.5652 147.362 73.2497 147.463C68.6425 147.817 68.2881 159.749 68.2881 159.749C70.4079 158.882 72.6681 158.408 74.9577 158.352L76.203 193.289C82.6078 192.74 89.325 193.379 96.2857 194.943L99.5505 163.06L107.154 160.103C107.154 160.103 105.854 152.897 103.492 150.062Z" fill="white"/>
<path d="M351.584 351.365L305.458 360.806L304.407 360.699L263.872 356.608V305.239L313.493 296.85L349.488 301.048L349.501 301.275V301.383L351.584 351.365Z" fill="#E6E6E6"/>
<path opacity="0.1" d="M351.584 351.365L305.459 360.806L304.407 360.699V308.038L349.502 301.275L351.584 351.365Z" fill="black"/>
<path opacity="0.05" d="M349.501 301.383L349.488 301.396L304.407 308.038L263.872 305.239L313.493 296.85L349.488 301.048L349.501 301.275V301.383Z" fill="black"/>
<path d="M297.496 324.997L269.452 323.167L268.593 336.33L296.637 338.16L297.496 324.997Z" fill="white"/>
<path d="M290.635 328.86L275.755 327.889L275.456 332.467L290.337 333.438L290.635 328.86Z" fill="#F9C615"/>
<path d="M414.101 351.365L367.975 360.806L366.923 360.699L326.389 356.608V305.239L376.01 296.85L412.005 301.048L412.018 301.275V301.383L414.101 351.365Z" fill="#F9C615"/>
<path opacity="0.1" d="M414.1 351.365L367.974 360.806L366.923 360.699V308.038L412.017 301.275L414.1 351.365Z" fill="black"/>
<path opacity="0.05" d="M412.018 301.383L412.005 301.396L366.923 308.038L326.389 305.239L376.01 296.85L412.005 301.048L412.018 301.275V301.383Z" fill="black"/>
<path d="M360.013 324.997L331.969 323.167L331.11 336.33L359.154 338.16L360.013 324.997Z" fill="white"/>
<path d="M353.152 328.86L338.271 327.889L337.973 332.467L352.853 333.438L353.152 328.86Z" fill="#F9C615"/>
<path d="M447.478 94.9913C447.478 94.9913 455.617 116.015 440.696 116.015C425.776 116.015 463.755 137.04 478.676 124.832C493.596 112.624 484.779 111.946 484.779 111.946C484.779 111.946 465.112 113.981 465.79 96.3477L447.478 94.9913Z" fill="#FFB8B8"/>
<path d="M458.079 101.32C471.326 101.32 482.065 90.581 482.065 77.3342C482.065 64.0874 471.326 53.3487 458.079 53.3487C444.832 53.3487 434.094 64.0874 434.094 77.3342C434.094 90.581 444.832 101.32 458.079 101.32Z" fill="#2F2E41"/>
<path d="M443.409 182.479L417.638 248.942C417.638 248.942 404.752 269.288 409.499 289.634C414.247 309.98 427.293 347.01 427.293 347.01C427.293 347.01 437.148 349.517 436.469 340.701C435.791 331.884 436.892 289.14 426.719 277.611L467.825 230.631L469.181 284.209C469.181 284.209 466.468 308.624 467.146 319.475C467.825 330.326 469.181 348.637 469.181 348.637L477.319 347.281C477.319 347.281 488.298 297.329 486.942 281.052C486.942 281.052 512.14 201.965 486.368 182.975L443.409 182.479Z" fill="#282828"/>
<path d="M430.125 346.899C430.125 346.899 426.807 346.054 426.425 349.098C426.043 352.141 419.063 365.675 426.35 366.353C433.637 367.03 436.158 360.213 437.378 355.42C438.598 350.627 439.061 350.352 440.08 349.434C441.099 348.515 443.525 343.485 440.481 343.102C437.438 342.72 435.878 339.727 435.878 339.727C435.878 339.727 434.918 348.12 430.125 346.899Z" fill="#2F2E41"/>
<path d="M474.493 344.546C474.493 344.546 468.339 343.666 468.778 345.864C469.218 348.062 467.899 357.293 468.778 358.172C469.657 359.051 471.416 360.81 471.416 362.128C471.416 363.447 471.855 367.843 479.328 366.524C486.801 365.205 485.042 358.612 484.603 357.733C484.163 356.854 478.888 352.458 479.328 349.82C479.768 347.183 477.13 342.787 474.493 344.546Z" fill="#2F2E41"/>
<path d="M458.376 103.951C467.551 103.951 474.989 96.5126 474.989 87.3373C474.989 78.162 467.551 70.724 458.376 70.724C449.201 70.724 441.763 78.162 441.763 87.3373C441.763 96.5126 449.201 103.951 458.376 103.951Z" fill="#FFB8B8"/>
<path d="M474.266 110.251C474.266 110.251 480.061 121.715 462.595 122.04C457.226 122.14 450.84 118.227 448.204 113.549C446.651 110.792 446.259 114.599 443.748 114.32C438.992 113.792 433.912 115.764 429.365 118.182C428.778 118.494 428.318 118.999 428.062 119.613C427.807 120.227 427.772 120.91 427.965 121.546C431.412 132.985 441.258 188.009 442.778 191.005C446.659 198.655 488.661 185.843 488.661 185.843C489.237 165.027 481.681 135.904 494.97 114.723C492.047 112.527 488.683 110.99 485.109 110.217C481.535 109.445 477.836 109.457 474.266 110.251Z" fill="#E53935"/>
<path d="M473.912 74.5622L461.739 68.1866L444.931 70.7945L441.453 86.1547L450.11 85.8214L452.528 80.1783V85.7285L456.523 85.5748L458.841 76.5908L460.291 86.1547L474.491 85.8645L473.912 74.5622Z" fill="#2F2E41"/>
<path d="M459.341 59.6607C464.687 59.6607 469.02 55.3275 469.02 49.9823C469.02 44.6371 464.687 40.304 459.341 40.304C453.996 40.304 449.663 44.6371 449.663 49.9823C449.663 55.3275 453.996 59.6607 459.341 59.6607Z" fill="#2F2E41"/>
<path d="M447.139 47.0367C447.139 44.725 447.966 42.4897 449.472 40.7349C450.977 38.9802 453.06 37.822 455.345 37.4698C453.966 37.2588 452.558 37.3483 451.217 37.7321C449.876 38.116 448.634 38.7851 447.576 39.6937C446.517 40.6023 445.668 41.7289 445.086 42.9963C444.504 44.2637 444.202 45.642 444.202 47.0367C444.202 48.4315 444.504 49.8098 445.086 51.0772C445.668 52.3446 446.517 53.4712 447.576 54.3798C448.634 55.2884 449.876 55.9575 451.217 56.3413C452.558 56.7252 453.966 56.8147 455.345 56.6037C453.06 56.2515 450.977 55.0933 449.472 53.3385C447.966 51.5838 447.139 49.3485 447.139 47.0367Z" fill="#2F2E41"/>
<path d="M503 277.377L456.874 286.818L455.823 286.711L415.288 282.62V231.252L464.909 222.862L500.904 227.06L500.917 227.288V227.395L503 277.377Z" fill="#E6E6E6"/>
<path opacity="0.1" d="M503 277.377L456.875 286.819L455.823 286.711V234.051L500.918 227.288L503 277.377Z" fill="black"/>
<path opacity="0.05" d="M500.917 227.395L500.904 227.408L455.823 234.05L415.288 231.252L464.909 222.862L500.904 227.06L500.917 227.288V227.395Z" fill="black"/>
<path d="M448.913 251.009L420.869 249.179L420.01 262.343L448.054 264.173L448.913 251.009Z" fill="white"/>
<path d="M442.051 254.872L427.171 253.901L426.872 258.48L441.753 259.451L442.051 254.872Z" fill="#F9C615"/>
<path d="M431.147 218.059C431.147 218.059 414.192 231.623 421.652 236.37C429.113 241.118 437.929 218.059 437.929 218.059H431.147Z" fill="#FFB8B8"/>
<path d="M431.881 117.591C431.002 116.601 419.912 122.257 421.557 129.636L422.33 180.758C422.33 180.758 418.261 222.806 428.434 222.806C438.607 222.806 437.407 224.22 438.763 220.829C440.12 217.438 440.484 188.711 440.484 188.711L431.881 117.591Z" fill="#E53935"/>
<path d="M484.333 213.471C484.333 213.471 493.15 236.529 500.61 231.782C508.07 227.035 491.115 213.471 491.115 213.471H484.333Z" fill="#FFB8B8"/>
<path d="M486.367 184.696C486.367 184.696 482.143 212.85 483.5 216.241C484.856 219.632 483.656 218.218 493.829 218.218C504.001 218.218 499.932 176.17 499.932 176.17L500.706 125.047C502.35 117.669 491.26 112.013 490.382 113.003L480.632 146.268L486.367 184.696Z" fill="#E53935"/>
</svg>
