<svg width="503" height="373" viewBox="0 0 503 373" fill="none" xmlns="http://www.w3.org/2000/svg">
<path d="M362.033 221.208L365.99 218.766C366.366 218.527 366.737 218.273 367.119 218.034C358.63 216.575 350.895 212.26 345.193 205.805C339.491 199.349 336.165 191.14 335.764 182.537C335.474 176.62 336.592 170.718 339.028 165.318C341.296 160.265 344.645 155.771 348.839 152.154C353.032 148.536 357.968 145.882 363.299 144.379L363.103 159.956L371.659 143.002C371.694 142.996 371.73 142.996 371.765 143.002C376.724 142.77 381.679 143.518 386.349 145.202C391.018 146.885 395.31 149.472 398.98 152.815C402.65 156.157 405.625 160.19 407.736 164.682C409.848 169.175 411.053 174.039 411.284 178.998C411.316 179.718 411.284 180.428 411.284 181.117C414.262 177.721 416.964 174.081 418.755 170.091C422.379 162.012 422.463 152.862 422.161 141.741C421.589 119.701 420.641 97.4961 419.401 75.3551C410.467 74.3629 402.18 70.2175 396.028 63.6635C389.876 57.1096 386.263 48.5767 385.837 39.5979C385.784 38.4376 385.8 37.2985 385.837 36.1647C385.837 35.8839 385.837 35.5978 385.88 35.317C385.954 34.2203 386.054 33.1341 386.224 32.0639C386.224 31.8838 386.288 31.7142 386.319 31.5341C386.475 30.6263 386.66 29.7292 386.876 28.8426C386.96 28.5141 387.04 28.1804 387.13 27.8519C387.395 26.8876 387.66 25.9392 388.025 25.0015C388.137 24.6889 388.269 24.3869 388.386 24.0796C388.656 23.3908 388.947 22.7127 389.255 22.0398C389.419 21.6848 389.578 21.3351 389.753 20.9802C389.795 20.8901 389.832 20.8 389.88 20.71C393.869 12.8307 400.493 6.59849 408.6 3.09649C416.708 -0.405512 425.786 -0.955815 434.257 1.54123L434.003 21.812L442.48 5.06981C449.433 9.04989 454.932 15.1489 458.173 22.476C461.413 29.8032 462.227 37.9746 460.493 45.7967H460.536C460.478 46.0669 460.393 46.3265 460.329 46.5914C460.213 47.0895 460.086 47.5822 459.948 48.0749C459.768 48.7054 459.566 49.3253 459.36 49.9452C459.201 50.4061 459.047 50.8777 458.872 51.3333C458.618 52.0009 458.342 52.6525 458.035 53.3042C457.866 53.6857 457.712 54.0724 457.505 54.4486C457.021 55.4235 456.492 56.3771 455.916 57.3096C455.72 57.6328 455.497 57.9401 455.291 58.2633C454.888 58.8885 454.48 59.5084 454.04 60.1123C453.77 60.4832 453.479 60.8382 453.193 61.2038C452.779 61.7336 452.356 62.2634 451.916 62.7455C451.603 63.1005 451.285 63.4502 450.957 63.8052C450.496 64.2926 450.019 64.7641 449.526 65.2304C449.203 65.543 448.875 65.8555 448.536 66.1522C447.979 66.645 447.396 67.1165 446.808 67.5774C446.512 67.8106 446.226 68.0543 445.918 68.2768C445.025 68.9408 444.101 69.5642 443.147 70.147C442.967 70.253 442.776 70.3431 442.618 70.449C441.823 70.9206 441.028 71.3603 440.175 71.7736C439.82 71.9484 439.449 72.1021 439.084 72.2663C438.4 72.5736 437.711 72.8703 437.007 73.1405C436.599 73.2941 436.18 73.4372 435.762 73.5802C435.068 73.8187 434.363 74.0359 433.642 74.2319C433.219 74.3485 432.8 74.465 432.371 74.5657C431.597 74.7511 430.808 74.9048 430.013 75.0372C429.96 75.0372 429.913 75.0372 429.86 75.069C430.382 84.4079 430.847 93.7521 431.253 103.102C433.507 98.4754 436.681 94.3584 440.583 91.0031C444.485 87.6479 449.031 85.1251 453.942 83.5897C458.854 82.0542 464.027 81.5384 469.145 82.0739C474.263 82.6094 479.217 84.1849 483.705 86.7038L477.024 105.009L490.767 91.8112C498.124 98.5544 502.506 107.94 502.953 117.91C503.128 121.408 502.805 124.913 501.994 128.321C500.267 135.694 496.365 142.379 490.792 147.507C485.22 152.636 478.235 155.971 470.744 157.081C463.252 158.191 455.6 157.023 448.781 153.731C441.961 150.438 436.288 145.172 432.498 138.615C432.498 139.563 432.567 140.517 432.593 141.465C432.842 151.278 433.155 163.485 428.265 174.388C424.953 181.779 419.618 187.782 414.347 193.16C410.919 196.662 407.364 200.047 403.718 203.327C400.134 208.139 395.456 212.03 390.07 214.675C384.084 219.288 377.885 223.608 371.474 227.635L367.58 230.146C363.982 232.377 360.295 234.665 356.676 237.034C357.312 236.97 357.942 236.901 358.589 236.875C366.599 236.499 374.521 238.68 381.21 243.102C387.899 247.524 393.01 253.958 395.803 261.474L372.184 280.701L398.145 274.677C398.138 281.069 396.511 287.354 393.415 292.946C390.32 298.538 385.858 303.255 380.446 306.655C375.034 310.054 368.848 312.027 362.466 312.388C356.085 312.749 349.716 311.486 343.955 308.718C344.538 309.449 345.126 310.175 345.709 310.901C346.869 312.347 348.024 313.783 349.153 315.208C364.517 334.668 368.798 353.148 361.185 367.236L351.934 362.234C359.352 348.523 348.226 330.975 340.898 321.725C339.791 320.326 338.657 318.917 337.513 317.486C327.695 305.3 316.569 291.462 316.85 274.502C317.247 248.965 342.09 233.563 362.033 221.208Z" fill="#F2F2F2"/>
<path d="M241.331 372.852C374.614 372.852 482.662 367.871 482.662 361.726C482.662 355.581 374.614 350.6 241.331 350.6C108.048 350.6 0 355.581 0 361.726C0 367.871 108.048 372.852 241.331 372.852Z" fill="#3F3D56"/>
<path d="M436.298 357.577C437.887 354.658 436.086 351.082 434.03 348.475C431.974 345.868 429.468 343.177 429.521 339.844C429.596 335.076 434.655 332.263 438.703 329.735C441.701 327.858 444.466 325.633 446.942 323.107C447.981 322.135 448.84 320.987 449.48 319.717C450.311 317.852 450.29 315.732 450.237 313.687C450.061 306.884 449.725 300.089 449.23 293.3" stroke="#3F3D56" stroke-width="4" stroke-miterlimit="10"/>
<path d="M456.918 292.94C456.858 291.695 456.488 290.485 455.84 289.42C455.192 288.356 454.287 287.471 453.209 286.847L451.545 290.142L451.593 286.158C450.455 285.817 449.252 285.754 448.085 285.975C446.918 286.196 445.821 286.694 444.886 287.427C443.952 288.16 443.207 289.107 442.714 290.188C442.222 291.269 441.996 292.453 442.056 293.639C442.149 295.606 443.02 297.456 444.476 298.781C445.197 299.438 446.041 299.946 446.958 300.276C447.876 300.606 448.849 300.753 449.823 300.707C450.798 300.661 451.753 300.423 452.635 300.008C453.518 299.593 454.31 299.008 454.966 298.287C455.622 297.566 456.13 296.722 456.46 295.805C456.791 294.887 456.937 293.914 456.891 292.94H456.918Z" fill="#57B793"/>
<path d="M443.657 343.272C442.878 344.785 441.603 345.983 440.046 346.668C438.489 347.352 436.743 347.48 435.103 347.031C433.462 346.582 432.026 345.582 431.034 344.2C430.043 342.817 429.557 341.136 429.658 339.438C429.758 337.74 430.44 336.128 431.587 334.873C432.735 333.617 434.279 332.794 435.962 332.542C437.644 332.289 439.362 332.623 440.828 333.487C442.293 334.35 443.417 335.691 444.012 337.285L439.371 341.063L444.478 339.876C444.479 341.057 444.197 342.222 443.657 343.272Z" fill="#57B793"/>
<path d="M439.985 328.814C439.01 328.861 438.035 328.714 437.116 328.383C436.197 328.053 435.352 327.543 434.63 326.885C433.909 326.227 433.324 325.433 432.91 324.548C432.496 323.663 432.261 322.706 432.218 321.73C432.159 320.566 432.379 319.406 432.859 318.344C433.305 317.351 433.962 316.466 434.786 315.754C435.61 315.042 436.58 314.519 437.628 314.222L437.591 317.29L439.276 313.952C441.246 313.86 443.173 314.555 444.631 315.883C446.09 317.212 446.961 319.065 447.053 321.036C447.145 323.007 446.451 324.933 445.122 326.392C443.794 327.85 441.94 328.722 439.97 328.814H439.985Z" fill="#57B793"/>
<path d="M458.037 316.782C456.07 316.874 454.146 316.182 452.69 314.856C451.233 313.531 450.363 311.681 450.27 309.714C450.177 307.747 450.87 305.823 452.195 304.366C453.521 302.91 455.37 302.039 457.338 301.947C458.728 301.878 460.11 302.205 461.322 302.89L460.008 306.493L462.71 303.896C464.16 305.222 465.025 307.068 465.115 309.03C465.149 309.718 465.085 310.406 464.925 311.075C464.554 312.646 463.681 314.054 462.438 315.083C461.195 316.113 459.65 316.709 458.037 316.782Z" fill="#57B793"/>
<path opacity="0.1" d="M455.916 294.9C454.199 295.091 452.531 295.626 450.809 295.732C449.087 295.838 447.195 295.425 446.104 294.084C445.516 293.364 445.224 292.452 444.726 291.668C444.257 290.935 443.615 290.33 442.856 289.904C442.408 290.842 442.161 291.863 442.133 292.903C442.104 293.942 442.295 294.975 442.692 295.936C443.088 296.897 443.683 297.764 444.436 298.48C445.19 299.197 446.085 299.747 447.065 300.095C448.044 300.442 449.086 300.581 450.123 300.5C451.159 300.419 452.167 300.122 453.081 299.626C453.995 299.131 454.795 298.449 455.428 297.625C456.062 296.801 456.515 295.853 456.759 294.842C456.472 294.852 456.192 294.874 455.916 294.9Z" fill="black"/>
<path opacity="0.1" d="M458.036 316.781C456.754 316.846 455.477 316.577 454.329 316.001C453.182 315.424 452.204 314.559 451.491 313.491C450.778 312.423 450.355 311.189 450.262 309.908C450.17 308.627 450.411 307.344 450.963 306.185C451.554 306.584 452.061 307.093 452.458 307.684C452.987 308.484 453.305 309.406 453.93 310.143C455.085 311.504 457.067 311.949 458.863 311.865C460.659 311.78 462.386 311.277 464.161 311.112C464.405 311.112 464.659 311.07 464.908 311.065C464.54 312.635 463.67 314.043 462.43 315.074C461.19 316.106 459.648 316.705 458.036 316.781Z" fill="black"/>
<path opacity="0.1" d="M439.985 328.814C439.01 328.861 438.035 328.714 437.116 328.383C436.197 328.052 435.352 327.543 434.63 326.885C433.909 326.227 433.324 325.433 432.91 324.548C432.496 323.663 432.261 322.706 432.218 321.73C432.159 320.566 432.379 319.406 432.859 318.344C433.476 318.748 434.015 319.259 434.449 319.854C435.026 320.67 435.387 321.608 436.038 322.36C437.294 323.759 439.403 324.252 441.305 324.204C443.207 324.156 444.918 323.711 446.751 323.574C446.299 325.037 445.407 326.324 444.196 327.262C442.985 328.2 441.515 328.741 439.985 328.814Z" fill="black"/>
<path opacity="0.1" d="M443.656 343.272C443.256 344.162 442.685 344.965 441.974 345.634C441.264 346.304 440.429 346.827 439.517 347.173C438.604 347.52 437.633 347.683 436.657 347.654C435.681 347.626 434.721 347.405 433.831 347.005C432.941 346.605 432.138 346.033 431.469 345.323C430.799 344.612 430.276 343.777 429.93 342.865C429.583 341.953 429.42 340.981 429.449 340.005C429.478 339.03 429.698 338.069 430.098 337.179C430.709 337.585 431.258 338.075 431.73 338.636C432.435 339.5 432.901 340.475 433.722 341.285C435.243 342.774 437.696 343.405 439.879 343.447C441.14 343.463 442.402 343.405 443.656 343.272Z" fill="black"/>
<path d="M425.087 354.213C425.087 354.213 430.952 354.033 432.722 352.772C434.491 351.511 441.728 350.006 442.189 352.03C442.65 354.054 451.011 362.097 444.383 362.128C437.755 362.16 428.986 361.069 427.222 360.009C425.458 358.949 425.087 354.213 425.087 354.213Z" fill="#656380"/>
<path opacity="0.2" d="M444.499 361.424C437.877 361.477 429.103 360.364 427.339 359.304C425.998 358.488 425.458 355.548 425.283 354.192H425.087C425.087 354.192 425.458 358.923 427.206 360.02C428.955 361.116 437.739 362.181 444.367 362.139C446.28 362.139 446.942 361.44 446.905 360.433C446.656 361.032 445.925 361.413 444.499 361.424Z" fill="black"/>
<path d="M103.001 341.232C99.1548 334.112 103.531 325.391 108.533 319.044C113.534 312.697 119.659 306.095 119.526 298.005C119.336 286.381 107.001 279.519 97.1468 273.358C89.8343 268.785 83.0887 263.362 77.0509 257.204C74.6297 254.729 72.2826 252.091 70.8733 248.933C68.8388 244.387 68.8918 239.222 69.0242 234.241C69.4481 217.641 70.2675 201.071 71.4826 184.534" stroke="#3F3D56" stroke-width="4" stroke-miterlimit="10"/>
<path d="M52.7436 183.628C52.8887 180.595 53.7933 177.648 55.3745 175.056C56.9557 172.464 59.1626 170.31 61.7928 168.793L65.8512 176.82L65.7294 167.103C69.4163 166.017 73.3531 166.13 76.9714 167.427C80.5897 168.724 83.7022 171.137 85.8594 174.319C88.0167 177.5 89.1071 181.284 88.9732 185.126C88.8393 188.967 87.4881 192.666 85.1145 195.69C82.741 198.713 79.4681 200.904 75.7683 201.946C72.0685 202.988 68.1333 202.827 64.5309 201.486C60.9286 200.146 57.8454 197.695 55.7267 194.488C53.608 191.281 52.5634 187.484 52.7436 183.644V183.628Z" fill="#57B793"/>
<path d="M85.0721 306.312C86.8947 309.864 89.8394 312.715 93.4487 314.422C97.0581 316.128 101.13 316.594 105.032 315.749C108.933 314.903 112.447 312.792 115.026 309.745C117.604 306.697 119.105 302.883 119.293 298.895C119.419 296.388 119.017 293.882 118.111 291.541C116.788 288.107 114.45 285.157 111.41 283.084C108.369 281.01 104.77 279.911 101.09 279.932C97.4094 279.953 93.8228 281.094 90.8065 283.203C87.7902 285.311 85.4871 288.288 84.2032 291.737L95.5253 300.945L83.0694 298.047C83.0642 300.923 83.7511 303.758 85.0721 306.312Z" fill="#57B793"/>
<path d="M94.0207 271.122C98.4656 271.325 102.83 269.887 106.283 267.081C109.736 264.274 112.037 260.296 112.747 255.904C113.457 251.511 112.527 247.011 110.134 243.26C107.741 239.509 104.052 236.768 99.7691 235.561L99.8645 243.026L95.7849 234.904H95.7373C90.9337 234.68 86.2379 236.373 82.6828 239.611C79.1277 242.849 77.0046 247.367 76.7805 252.17C76.5563 256.974 78.2496 261.67 81.4877 265.225C84.7259 268.78 89.2436 270.903 94.0471 271.127L94.0207 271.122Z" fill="#57B793"/>
<path d="M50.0143 241.839C52.8209 241.976 55.6208 241.458 58.1931 240.328C60.7653 239.197 63.0396 237.483 64.8362 235.323C66.6329 233.163 67.9029 230.614 68.5458 227.879C69.1888 225.144 69.1872 222.296 68.5412 219.562C67.8951 216.827 66.6223 214.28 64.8232 212.122C63.0241 209.963 60.7479 208.253 58.1744 207.125C55.6009 205.997 52.8004 205.483 49.994 205.622C47.1876 205.762 44.4521 206.553 42.0035 207.931L45.1824 216.71L38.618 210.368C36.8632 211.965 35.4405 213.892 34.4314 216.04C33.4222 218.187 32.8465 220.512 32.7371 222.882C32.6529 224.559 32.8081 226.24 33.198 227.873C34.0991 231.714 36.2289 235.156 39.2638 237.677C42.2988 240.197 46.0733 241.659 50.0143 241.839Z" fill="#57B793"/>
<path opacity="0.1" d="M55.18 188.46C59.3655 188.921 63.4345 190.219 67.6306 190.479C71.8268 190.738 76.4415 189.737 79.0958 186.473C80.5263 184.714 81.2416 182.489 82.4496 180.571C83.5942 178.784 85.1631 177.308 87.0166 176.274C88.1707 178.572 88.823 181.089 88.9302 183.657C89.0374 186.226 88.597 188.788 87.6382 191.174C86.6795 193.56 85.2243 195.714 83.3692 197.494C81.5142 199.274 79.3018 200.64 76.8787 201.5C74.4557 202.359 71.8775 202.694 69.3153 202.481C66.753 202.268 64.2653 201.513 62.0173 200.265C59.7693 199.018 57.8124 197.306 56.2764 195.244C54.7404 193.183 53.6605 190.818 53.1084 188.307C53.8131 188.338 54.5018 188.386 55.18 188.46Z" fill="black"/>
<path opacity="0.1" d="M50.0149 241.839C53.1389 241.983 56.247 241.317 59.0377 239.906C61.8284 238.494 64.2068 236.385 65.9422 233.784C67.6775 231.182 68.7108 228.176 68.9418 225.057C69.1727 221.938 68.5935 218.813 67.2604 215.984C65.821 216.952 64.5831 218.19 63.6152 219.629C62.3225 221.579 61.5437 223.831 60.0231 225.621C57.1992 228.938 52.3779 230.024 48.0016 229.828C43.6253 229.632 39.4027 228.382 35.0476 227.984C34.4436 227.931 33.829 227.889 33.2197 227.873C34.1199 231.711 36.2464 235.15 39.2772 237.67C42.3079 240.19 46.0776 241.654 50.0149 241.839Z" fill="black"/>
<path opacity="0.1" d="M94.0207 271.122C97.1142 271.267 100.193 270.617 102.964 269.235C105.735 267.852 108.106 265.782 109.85 263.222C111.593 260.663 112.652 257.7 112.925 254.615C113.198 251.53 112.676 248.427 111.409 245.601C109.916 246.592 108.618 247.849 107.579 249.309C106.169 251.296 105.29 253.585 103.642 255.418C100.585 258.825 95.4458 260.028 90.81 259.916C86.3224 259.821 81.9991 258.719 77.5381 258.375C78.6425 261.936 80.8174 265.07 83.7666 267.351C86.7159 269.632 90.2963 270.948 94.0207 271.122Z" fill="black"/>
<path opacity="0.1" d="M85.0723 306.312C86.8949 309.864 89.8396 312.715 93.4489 314.421C97.0583 316.128 101.13 316.594 105.032 315.749C108.934 314.903 112.447 312.792 115.026 309.745C117.605 306.697 119.105 302.883 119.293 298.895C119.42 296.388 119.017 293.882 118.112 291.541C116.62 292.521 115.281 293.715 114.138 295.085C112.416 297.205 111.277 299.568 109.285 301.528C105.576 305.163 99.5945 306.667 94.2699 306.826C91.1965 306.837 88.1253 306.665 85.0723 306.312Z" fill="black"/>
<path d="M228.466 351.818L158.53 366.123L156.941 365.964L95.4824 359.765V281.883L170.716 269.167L225.287 275.525L225.303 275.869L225.308 276.039L228.466 351.818Z" fill="#F9C615"/>
<path opacity="0.1" d="M228.466 351.818L158.531 366.123L156.941 365.964V286.121L225.303 275.869L228.466 351.818Z" fill="black"/>
<path opacity="0.05" d="M225.308 276.039L225.287 276.055L156.941 286.121L95.4824 281.883L170.716 269.167L225.287 275.525L225.303 275.869L225.308 276.039Z" fill="black"/>
<path d="M305.29 354.997L235.355 369.302L233.765 369.143L172.307 362.944V285.061L247.54 272.346L302.111 278.704L302.127 279.048L302.133 279.218L305.29 354.997Z" fill="#3F3D56"/>
<path opacity="0.1" d="M305.29 354.997L235.354 369.302L233.765 369.143V289.3L302.127 279.048L305.29 354.997Z" fill="black"/>
<path opacity="0.05" d="M302.133 279.218L302.111 279.233L233.765 289.3L172.307 285.061L247.54 272.346L302.111 278.704L302.127 279.048L302.133 279.218Z" fill="black"/>
<path d="M257.077 278.704L187.142 293.009L185.552 292.85L124.094 286.651V208.768L199.328 196.052L253.899 202.41L253.914 202.755L253.92 202.924L257.077 278.704Z" fill="#3F3D56"/>
<path opacity="0.1" d="M257.078 278.704L187.142 293.009L185.553 292.85V213.007L253.915 202.755L257.078 278.704Z" fill="black"/>
<path opacity="0.05" d="M253.92 202.924L253.899 202.94L185.552 213.006L124.094 208.768L199.328 196.052L253.899 202.41L253.914 202.755L253.92 202.924Z" fill="black"/>
<path d="M296.813 281.967L260.314 289.438L259.482 289.353L227.407 286.116V245.468L266.672 238.83L295.155 242.152L295.165 242.332V242.416L296.813 281.967Z" fill="#3F3D56"/>
<path opacity="0.1" d="M296.813 281.967L260.314 289.438L259.482 289.353V247.683L295.165 242.332L296.813 281.967Z" fill="black"/>
<path opacity="0.05" d="M295.165 242.416L295.155 242.427L259.482 247.683L227.407 245.468L266.672 238.83L295.155 242.152L295.165 242.332V242.416Z" fill="black"/>
<path d="M198.797 203.025L162.298 210.49L161.467 210.41L129.392 207.173V166.526L168.656 159.887L197.139 163.209L197.15 163.389V163.474L198.797 203.025Z" fill="#3F3D56"/>
<path opacity="0.1" d="M198.798 203.025L162.299 210.49L161.467 210.41V168.74L197.15 163.389L198.798 203.025Z" fill="black"/>
<path opacity="0.05" d="M197.15 163.474L197.139 163.485L161.467 168.74L129.392 166.526L168.656 159.887L197.139 163.209L197.15 163.389V163.474Z" fill="black"/>
<path d="M262.905 201.435L226.406 208.9L225.574 208.821L193.499 205.584V164.936L232.764 158.298L261.247 161.62L261.257 161.8V161.885L262.905 201.435Z" fill="#F9C615"/>
<path opacity="0.1" d="M262.905 201.435L226.406 208.9L225.574 208.821V167.151L261.257 161.8L262.905 201.435Z" fill="black"/>
<path opacity="0.05" d="M261.257 161.885L261.247 161.895L225.574 167.151L193.499 164.936L232.764 158.298L261.247 161.62L261.257 161.8V161.885Z" fill="black"/>
<path d="M281.978 160.64L245.479 168.105L244.647 168.025L212.572 164.788V124.141L251.837 117.502L280.32 120.824L280.33 121.004V121.089L281.978 160.64Z" fill="#3F3D56"/>
<path opacity="0.1" d="M281.978 160.64L245.479 168.105L244.647 168.025V126.355L280.331 121.004L281.978 160.64Z" fill="black"/>
<path opacity="0.05" d="M280.33 121.089L280.32 121.1L244.647 126.355L212.572 124.141L251.837 117.502L280.32 120.824L280.33 121.004V121.089Z" fill="black"/>
<path d="M306.837 77.5433C306.45 80.9871 303.822 83.7633 302.847 87.08C301.385 92.0867 303.907 97.4644 307.383 101.385C310.184 104.5 313.575 107.029 317.36 108.824C321.145 110.619 325.249 111.646 329.434 111.844C330.663 111.949 331.901 111.814 333.079 111.446C334.127 111.019 335.072 110.373 335.85 109.549C338.456 106.927 339.86 103.298 340.417 99.6366C340.973 95.9756 340.761 92.251 340.544 88.5582C340.543 87.7939 340.403 87.0362 340.13 86.3223C339.776 85.6434 339.287 85.0433 338.695 84.5581C336.816 82.8312 334.745 81.3255 332.522 80.0705C331.569 79.5407 330.546 79.0109 329.937 78.0943C329.519 77.3644 329.247 76.56 329.137 75.726L328.453 72.2504C328.332 71.2483 327.99 70.2856 327.452 69.4318C326.249 67.8106 323.945 67.5881 321.926 67.5086L314.509 67.2172C312.204 67.1271 309.173 66.4649 306.922 66.9205C304.802 67.3391 305.518 69.2782 305.899 71.0372C306.451 73.1646 306.765 75.3466 306.837 77.5433Z" fill="#FFC0C6"/>
<path opacity="0.1" d="M306.837 77.5433C306.45 80.9871 303.822 83.7633 302.847 87.08C301.385 92.0867 303.907 97.4644 307.383 101.385C310.184 104.5 313.575 107.029 317.36 108.824C321.145 110.619 325.249 111.646 329.434 111.844C330.663 111.949 331.901 111.814 333.079 111.446C334.127 111.019 335.072 110.373 335.85 109.549C338.456 106.927 339.86 103.298 340.417 99.6366C340.973 95.9756 340.761 92.251 340.544 88.5582C340.543 87.7939 340.403 87.0362 340.13 86.3223C339.776 85.6434 339.287 85.0433 338.695 84.5581C336.816 82.8312 334.745 81.3255 332.522 80.0705C331.569 79.5407 330.546 79.0109 329.937 78.0943C329.519 77.3644 329.247 76.56 329.137 75.726L328.453 72.2504C328.332 71.2483 327.99 70.2856 327.452 69.4318C326.249 67.8106 323.945 67.5881 321.926 67.5086L314.509 67.2172C312.204 67.1271 309.173 66.4649 306.922 66.9205C304.802 67.3391 305.518 69.2782 305.899 71.0372C306.451 73.1646 306.765 75.3466 306.837 77.5433Z" fill="black"/>
<path d="M353.942 232.652L350.795 267.154C349.974 276.203 349.137 285.289 347.526 294.222C346.996 297.3 346.318 300.362 345.545 303.398C343.394 311.828 340.273 320.066 339.266 328.708C339.235 328.957 339.208 329.237 339.182 329.465C338.975 331.372 338.795 333.301 338.122 335.081C337.592 336.4 336.845 337.603 336.299 338.906C335.24 341.513 335.07 344.395 334.938 347.219C331.119 345.063 326.936 343.627 322.598 342.981C320.479 342.668 318.174 342.451 316.77 340.861C315.181 339.134 315.366 336.491 315.631 334.17C316.465 326.964 317.295 319.762 318.121 312.564C318.397 309.467 318.929 306.397 319.711 303.388C319.997 302.386 320.341 301.401 320.691 300.415C321.173 299.059 321.661 297.703 322.026 296.309C322.533 294.071 322.884 291.799 323.075 289.512C323.928 282.264 324.956 275.032 325.857 267.789L325.904 267.408C327.256 256.43 328.283 245.399 327.987 234.342C327.944 232.705 327.875 231.068 327.769 229.425C327.621 227.047 327.404 225.786 329.359 224.297C331.536 222.654 334.403 221.505 336.893 220.429C338.233 219.846 352.994 214.601 353.317 215.756C354.002 218.209 354.359 220.743 354.377 223.29C354.407 226.416 354.262 229.542 353.942 232.652Z" fill="#605D82"/>
<path opacity="0.1" d="M347.528 294.222C346.998 297.3 346.32 300.362 345.546 303.398C343.395 311.828 340.275 320.066 339.268 328.708C339.236 328.957 339.21 329.237 339.183 329.465C332.603 320.066 327.061 309.957 320.64 300.458C321.122 299.102 321.609 297.745 321.975 296.352C322.502 294.1 322.87 291.815 323.077 289.512C323.93 282.264 324.958 275.032 325.858 267.789L325.906 267.408C326.278 268.945 326.811 270.438 327.495 271.864C331.808 280.627 342.055 285.056 347.067 293.443C347.233 293.704 347.387 293.964 347.528 294.222Z" fill="black"/>
<path d="M294.133 217.176C294.35 224.201 295.473 231.169 296.597 238.109L298.912 252.414C300.178 260.255 301.503 268.25 305.211 275.27C307.988 280.526 311.982 285.008 315.601 289.718C324.491 301.3 331.172 314.424 339.602 326.345C342.055 329.81 345.557 333.561 349.737 332.835C352.481 332.363 354.474 330.074 356.625 328.316C359.168 326.239 362.23 324.718 364.233 322.111C366.235 319.505 366.628 315.181 363.915 313.327C362.988 312.697 361.859 312.458 360.81 312.055C356.609 310.466 353.886 306.355 352.158 302.201C350.431 298.047 349.377 293.591 347.072 289.729C342.06 281.342 331.808 276.913 327.495 268.144C325.079 263.238 324.846 257.548 324.666 252.107L324.195 238.167C324.142 236.642 324.105 235.057 324.724 233.664C326.372 229.955 331.352 229.606 335.39 229.134C339.968 228.599 344.403 227.201 348.46 225.012C350.786 223.756 353.054 222.156 354.288 219.825C355.422 217.706 355.576 215.21 355.708 212.805L357.107 187.538C357.229 185.366 357.335 183.114 356.577 181.08C354.654 175.962 348.19 174.288 342.728 174.531C332.566 174.987 323.188 179.358 313.588 182.314C311.209 183.045 308.819 183.702 306.366 184.195C304.247 184.624 301.598 184.449 299.564 185.138C295.918 186.367 296.008 194.346 295.495 197.652C294.434 204.104 293.978 210.64 294.133 217.176Z" fill="#605D82"/>
<path d="M348.359 333.905C349.255 334.811 349.546 336.136 349.779 337.386C351.074 344.325 351.748 351.366 351.793 358.425C351.735 359.084 351.865 359.745 352.169 360.332C352.423 360.68 352.765 360.955 353.159 361.127C355.75 362.362 358.754 360.64 360.916 358.748C364.916 355.246 368.302 350.541 368.529 345.227C368.588 343.86 368.434 342.478 368.672 341.127C369.022 339.124 370.193 337.381 371.221 335.632C372.98 332.652 374.401 329.486 375.459 326.191C375.851 324.951 376.116 323.394 375.142 322.53C374.8 322.259 374.41 322.056 373.992 321.931L362.283 317.587C361.266 317.211 358.744 323.69 358.346 324.4C357.366 326.133 356.391 327.113 354.426 327.516C352.46 327.918 350.034 327.336 348.158 328.337C344.979 330.027 346.563 332.099 348.359 333.905Z" fill="#535070"/>
<path d="M330.303 337.905C330.086 337.472 329.783 337.088 329.413 336.777C328.872 336.432 328.256 336.223 327.617 336.167C325.392 335.786 322.753 335.537 321.211 337.195C319.77 338.748 320.019 341.275 318.817 343.023C318.435 343.553 317.916 344.03 317.588 344.613C317.179 345.505 316.997 346.484 317.058 347.463C316.994 350.16 316.931 352.867 317.121 355.559C317.275 357.816 317.651 360.184 319.066 361.953C321.333 364.793 325.424 365.201 329.047 365.381L331.988 365.535C332.796 365.63 333.616 365.554 334.393 365.312C334.875 365.091 335.307 364.775 335.664 364.382C336.021 363.99 336.295 363.53 336.47 363.029C338.001 359.225 335.58 355.129 334.086 351.315C332.364 346.923 332.671 342.054 330.303 337.905Z" fill="#535070"/>
<path d="M305.989 58.1256C305.952 57.74 306.008 57.351 306.154 56.9918C306.583 56.2342 307.706 56.462 308.554 56.6528C311.961 57.5111 315.553 56.7322 319.065 56.9336C322.578 57.1349 326.53 58.8886 327.235 62.3324C329.784 60.5289 331.98 58.2734 333.715 55.6779C334.69 54.2209 335.537 52.552 335.405 50.8036C335.214 48.2817 333.1 46.3955 331.166 44.7955L325.338 40.0271C324.571 39.3229 323.685 38.7597 322.721 38.3635C321.375 37.9026 319.902 38.1251 318.483 38.1251C314.244 38.1251 309.698 36.1913 305.921 38.1251C304.331 38.9357 303.15 40.3291 302.005 41.6855L296.797 47.8525C296.403 48.2456 296.115 48.7324 295.96 49.2671C295.812 50.0195 296.199 50.7612 296.336 51.5188C296.58 52.8964 295.987 54.3692 296.442 55.6938C297.2 57.8872 299.87 58.1998 301.502 59.4608C302.106 59.927 303.06 61.5218 303.785 61.5006C305.062 61.4741 305.952 59.1429 305.989 58.1256Z" fill="#3F3D56"/>
<path d="M314.827 76.314C324.044 76.314 331.516 68.842 331.516 59.6249C331.516 50.4077 324.044 42.9357 314.827 42.9357C305.61 42.9357 298.138 50.4077 298.138 59.6249C298.138 68.842 305.61 76.314 314.827 76.314Z" fill="#FFC0C6"/>
<path d="M318.737 96.145C318.171 94.5274 317.107 93.1313 315.696 92.1581C314.286 91.1848 312.603 90.6849 310.89 90.7303C310.399 90.824 309.89 90.7591 309.438 90.5448C309.182 90.3492 308.977 90.0948 308.84 89.8031C307.828 87.9766 307.013 86.0478 306.408 84.0493C306.143 83.1645 305.777 82.1208 304.882 81.893C304.161 81.7075 303.425 82.1738 302.943 82.7407C302.515 83.349 302.052 83.9311 301.555 84.4837C299.435 86.3593 295.727 84.648 293.507 86.3699C293.141 86.6507 292.839 87.011 292.447 87.2706C292.066 87.503 291.654 87.6813 291.223 87.8004C286.914 89.2023 282.69 90.8528 278.571 92.7436C280.055 101.666 281.57 110.757 285.046 119.102C286.699 123.076 288.569 126.97 289.893 131.065C292.829 140.141 292.956 149.852 292.993 159.394C292.993 165.922 292.993 172.587 290.874 178.764C290.397 180.163 289.814 181.551 289.682 183.003C289.549 184.455 289.984 186.097 291.176 186.966C291.866 187.421 292.657 187.7 293.48 187.777C297.141 188.306 300.829 187.342 304.432 186.505C314.09 184.269 323.945 182.987 333.773 181.737L350.25 179.617C351.432 179.535 352.589 179.235 353.662 178.733C356.677 177.085 356.963 172.55 355.087 169.667C354.192 168.285 352.926 167.151 352.168 165.689C351.41 164.226 351.352 162.171 352.65 161.159C355.299 159.092 354.504 155.262 354.632 151.913C354.985 142.546 354.937 133.186 354.489 123.833C354.354 121.894 354.322 119.948 354.393 118.005C354.579 114.71 355.395 111.483 356.21 108.278L361.217 88.5686C359.909 86.5024 357.403 85.1884 355.034 84.595C352.666 84.0016 350.192 83.8268 347.855 83.1009C343.087 81.6175 338.806 77.8558 333.81 78.2054C333.431 78.2122 333.058 78.3026 332.718 78.4703C331.595 79.1114 331.77 80.7327 331.701 82.0254C331.542 84.8917 329.434 87.2812 327.113 88.9607C324.792 90.6402 322.133 91.8588 319.998 93.7714C319.627 94.0509 319.322 94.4083 319.104 94.8184C318.886 95.2285 318.761 95.6813 318.737 96.145Z" fill="#E53935"/>
<path d="M252.611 114.842C251.505 115.561 250.33 116.166 249.103 116.649C247.938 117.11 246.693 117.475 245.739 118.281C245.267 118.69 244.871 119.18 244.568 119.727C244.004 120.729 243.718 121.864 243.742 123.014C243.765 124.164 244.097 125.286 244.702 126.264C245.307 127.242 246.163 128.039 247.182 128.574C248.2 129.108 249.343 129.359 250.491 129.301C252.023 129.221 253.469 128.602 254.873 127.992L266.646 122.869C268.638 122.005 270.789 120.999 271.732 119.038C271.84 118.855 271.881 118.64 271.848 118.429C271.757 118.198 271.583 118.009 271.361 117.899C268.708 116.173 266.388 113.984 264.51 111.436C264.028 110.779 263.451 109.232 262.751 108.834C260.261 107.451 254.608 113.55 252.611 114.842Z" fill="#FFC0C6"/>
<path d="M378.452 110.683L382.791 115.642C383.724 116.702 384.656 117.762 385.504 118.906C387.59 121.779 389.263 124.93 390.474 128.268C391.417 130.742 392.201 133.381 391.872 136.008C391.652 137.356 391.288 138.675 390.786 139.945C389.991 142.386 389.005 144.759 387.835 147.044C386.859 148.778 385.755 150.438 384.534 152.009C381.174 156.462 377.496 160.667 373.53 164.592C372.047 166.06 371.411 168.438 370.78 170.42C369.588 174.081 366.754 176.937 364.015 179.639C363.134 180.57 362.159 181.408 361.106 182.139C359.529 183.157 357.684 183.681 355.808 183.644C354.989 183.649 354.179 183.481 353.429 183.151C351.553 182.261 350.6 180.094 350.404 178.028C350.231 176.151 350.544 174.26 351.315 172.539C353.805 167.024 360.2 164.634 364.719 160.608C367.368 158.25 369.398 155.283 371.4 152.353C372.757 150.522 373.89 148.535 374.775 146.435C375.782 143.738 375.39 140.549 376.275 137.815C376.645 136.655 377.334 135.611 377.71 134.461C378.087 133.312 378.214 131.95 377.509 130.959C376.981 130.326 376.306 129.831 375.544 129.518C372.656 128.056 369.424 126.17 368.873 122.975C368.652 121.206 369.115 119.419 370.166 117.979C371.211 116.557 372.434 115.275 373.806 114.164C375.061 113.03 377.186 111.775 378.452 110.683Z" fill="#FFC0C6"/>
<path d="M249.824 121.762C249.061 120.215 248.102 118.636 246.555 117.867C245.802 117.543 244.99 117.375 244.171 117.375C243.351 117.375 242.539 117.543 241.786 117.867C240.287 118.516 238.883 119.364 237.611 120.389L233.871 123.15C233.023 123.706 232.273 124.399 231.651 125.2C231.058 126.172 230.665 127.253 230.496 128.379C229.966 130.959 229.537 133.614 229.908 136.226C230.501 140.464 233.044 144.13 235.842 147.352C237.59 149.354 239.752 151.378 242.412 151.468C243.561 151.505 244.838 151.05 245.315 150.006C245.481 149.591 245.569 149.149 245.575 148.703C245.861 143.998 244.176 139.404 242.215 135.118C241.686 133.953 241.113 132.745 241.156 131.468C241.14 131.251 241.195 131.035 241.315 130.853C241.483 130.677 241.708 130.566 241.951 130.541C244.637 130.011 249.267 132.098 251.148 129.115C252.367 127.145 250.693 123.515 249.824 121.762Z" fill="#FFC0C6"/>
<path d="M305.11 52.875C305.077 52.489 305.135 52.1006 305.279 51.7412C305.708 50.9783 306.832 51.2114 307.679 51.4021C311.086 52.2604 314.678 51.4816 318.191 51.6829C321.704 51.8843 325.651 53.638 326.361 57.0818C328.907 55.2753 331.102 53.0204 332.84 50.4273C333.815 48.965 334.663 47.2961 334.53 45.5477C334.34 43.0258 332.22 41.1396 330.292 39.5449L324.464 34.7765C323.698 34.0724 322.814 33.5092 321.852 33.1129C320.501 32.652 319.033 32.8745 317.613 32.8745C313.375 32.8745 308.829 30.9407 305.051 32.8745C303.462 33.6851 302.281 35.0785 301.136 36.4349L295.923 42.6019C295.531 42.9959 295.245 43.4825 295.091 44.0165C294.943 44.7689 295.329 45.5106 295.467 46.2682C295.711 47.6457 295.117 49.1186 295.573 50.4379C296.331 52.6366 299.001 52.9492 300.633 54.2102C301.237 54.6764 302.19 56.2711 302.916 56.25C304.172 56.2235 305.062 53.8923 305.11 52.875Z" fill="#3F3D56"/>
<path d="M269.665 98.6087C268.992 99.0454 268.4 99.5958 267.916 100.235C267.307 101.162 267.18 102.354 266.655 103.308C265.532 105.396 262.899 106.143 261.262 107.854C260.996 108.088 260.811 108.399 260.732 108.744C260.722 109.21 260.878 109.664 261.172 110.026L269.087 122.466C271.736 122.699 274.247 121.046 276.886 121.269C277.866 121.348 278.878 121.687 279.821 121.396C280.495 121.096 281.127 120.709 281.702 120.246C283.291 119.25 285.368 119.134 286.688 117.825C288.007 116.516 288.118 114.593 288.102 112.808C288.126 111.258 287.968 109.711 287.631 108.198C286.465 103.43 282.815 99.7531 280.526 95.5252C279.408 93.4642 278.804 92.2615 276.446 93.6761C274.089 95.0907 271.895 96.9769 269.665 98.6087Z" fill="#E53935"/>
<path d="M365.78 92.3198C367.268 93.2858 368.61 94.4598 369.764 95.806C370.967 97.3584 371.651 99.2657 372.811 100.855C373.971 102.445 375.46 103.589 376.731 105.009C378.665 107.16 379.974 109.777 381.256 112.379C378.117 116.462 374.697 120.322 371.02 123.929C370.61 124.411 370.069 124.764 369.462 124.946C369.051 124.99 368.636 124.931 368.253 124.775C367.87 124.619 367.532 124.37 367.269 124.05C366.697 123.457 366.294 122.715 365.748 122.095C364.463 120.77 362.749 119.942 360.911 119.759C359.089 119.581 357.255 119.555 355.428 119.68C355.027 119.727 354.62 119.659 354.257 119.483C353.986 119.298 353.767 119.046 353.621 118.752C351.502 115.107 352.164 110.53 352.922 106.365L354.654 96.8286C354.907 95.0078 355.393 93.2271 356.1 91.5304C356.757 90.1264 358.22 87.7422 360.032 88.1661C361.844 88.5899 364.249 91.2178 365.78 92.3198Z" fill="#E53935"/>
<path d="M214.691 162.229L178.192 169.694L177.36 169.615L145.285 166.377V125.73L184.55 119.091L213.033 122.413L213.043 122.594V122.678L214.691 162.229Z" fill="#F9C615"/>
<path opacity="0.1" d="M214.691 162.229L178.192 169.694L177.36 169.615V127.945L213.043 122.594L214.691 162.229Z" fill="black"/>
<path opacity="0.05" d="M213.043 122.678L213.033 122.689L177.36 127.945L145.285 125.73L184.55 119.091L213.033 122.413L213.043 122.594V122.678Z" fill="black"/>
<path d="M233.765 121.963L197.266 129.434L196.434 129.349L164.359 126.112V85.4641L203.624 78.8256L232.107 82.1475L232.117 82.3276V82.4124L233.765 121.963Z" fill="#3F3D56"/>
<path opacity="0.1" d="M233.765 121.963L197.266 129.433L196.435 129.349V87.6786L232.118 82.3275L233.765 121.963Z" fill="black"/>
<path opacity="0.05" d="M232.117 82.4124L232.107 82.423L196.434 87.6788L164.359 85.4641L203.624 78.8256L232.107 82.1475L232.117 82.3276V82.4124Z" fill="black"/>
</svg>
