<svg width="503" height="398" viewBox="0 0 503 398" fill="none" xmlns="http://www.w3.org/2000/svg">
<path d="M297.954 232.656C280.693 197.502 294.502 166.958 318.668 145.635C352.041 130.075 384.839 136.991 409.005 168.111C424.775 158.88 444.852 156.882 461.366 160.619C474.107 112.553 462.176 54.9251 419.647 23.8577C364.326 -16.5537 286.772 -4.3971 246.424 51.0101C191.103 10.5987 113.548 22.7553 73.2003 78.1625C32.8521 133.57 44.9896 211.246 100.31 251.658L300.643 398L353.767 324.286L297.954 232.656Z" fill="url(#paint0_linear)"/>
<path d="M409.764 172.92C405.66 165.881 400.211 159.72 393.729 154.79C387.248 149.861 379.86 146.258 371.988 144.188C364.115 142.119 355.913 141.623 347.85 142.729C339.786 143.835 332.019 146.521 324.992 150.634C317.965 154.747 311.816 160.206 306.897 166.7C301.977 173.193 298.382 180.594 296.319 188.479C294.255 196.364 293.763 204.579 294.87 212.655C295.977 220.731 298.662 228.509 302.771 235.546L365.298 342.707L472.291 280.081C479.316 275.969 485.464 270.511 490.384 264.02C495.303 257.528 498.897 250.129 500.962 242.246C503.026 234.363 503.521 226.15 502.416 218.076C501.311 210.002 498.63 202.224 494.524 195.188C490.418 188.152 484.969 181.994 478.488 177.067C472.006 172.14 464.619 168.54 456.748 166.472C448.878 164.404 440.677 163.91 432.616 165.016C424.554 166.122 416.789 168.808 409.764 172.92Z" fill="url(#paint1_linear)"/>
<path d="M409.248 174.892C401.341 161.342 388.384 151.492 373.227 147.51C358.07 143.528 341.954 145.74 328.425 153.659C314.896 161.578 305.062 174.555 301.086 189.736C297.11 204.917 299.318 221.058 307.225 234.608L366.848 336.791L468.871 277.075C475.57 273.154 481.432 267.95 486.123 261.76C490.814 255.57 494.241 248.515 496.21 240.998C498.179 233.481 498.65 225.649 497.596 217.95C496.543 210.251 493.986 202.835 490.071 196.125C486.156 189.416 480.96 183.544 474.78 178.846C468.599 174.148 461.555 170.715 454.05 168.743C446.545 166.772 438.726 166.3 431.038 167.355C423.351 168.41 415.947 170.971 409.248 174.892Z" fill="#E53935"/>
<path opacity="0.2" d="M467.793 277.615C481.3 269.709 491.125 256.76 495.113 241.609C499.101 226.457 496.927 210.34 489.066 196.792C481.206 183.244 468.301 173.372 453.183 169.341C438.065 165.31 421.968 167.449 408.422 175.289L467.165 277.982L467.793 277.615Z" fill="black"/>
<path d="M457.365 157.967C441.008 154.244 423.849 156.9 409.377 165.396C400.515 150.214 385.995 139.179 369.01 134.719C352.026 130.258 333.968 132.737 318.808 141.611C303.648 150.484 292.628 165.025 288.171 182.035C283.714 199.045 286.186 217.132 295.042 232.318L347.574 322.353L298.859 389.259L198.824 316.182L207.25 311.252C223.762 301.587 235.982 285.989 241.426 267.627C246.87 249.264 245.132 229.515 236.563 212.39C227.994 195.265 213.238 182.05 195.291 175.428C177.345 168.806 157.556 169.275 139.942 176.74C136.971 178.003 134.083 179.455 131.296 181.086C124.038 168.641 113.371 158.542 100.558 151.983C87.7449 145.424 73.3234 142.682 59.002 144.08C59.4687 138.093 60.3878 132.15 61.7512 126.301C61.9021 125.653 62.0638 125 62.2256 124.347C62.8724 121.782 63.6056 119.232 64.4249 116.696C64.4896 116.502 64.5489 116.302 64.619 116.108C64.991 114.985 65.3845 113.862 65.7888 112.744C66.2524 111.47 66.7429 110.196 67.255 108.932C67.5084 108.301 67.7671 107.669 68.0367 107.043C68.2954 106.433 68.5596 105.822 68.8291 105.212C68.837 105.194 68.846 105.176 68.856 105.158C69.131 104.532 69.4167 103.911 69.7078 103.29C69.7401 103.215 69.7724 103.139 69.8102 103.069C70.0689 102.518 70.3277 101.973 70.5972 101.428C70.8991 100.807 71.2064 100.191 71.519 99.5757C72.1821 98.2637 72.8775 96.9679 73.5998 95.6721C73.8586 95.197 74.1281 94.7273 74.403 94.2576C74.7265 93.6907 75.0553 93.1238 75.3949 92.5623C75.5512 92.3031 75.7076 92.0386 75.8693 91.7794C76.7479 90.327 77.6644 88.8891 78.6185 87.4655C78.8395 87.1308 79.0659 86.796 79.2977 86.4613C79.6104 86.0024 79.9284 85.5434 80.2465 85.0899C80.6292 84.55 81.0119 84.0101 81.4055 83.4702C119.981 30.4997 194.129 18.8754 247.017 57.5114C285.592 4.54085 359.74 -7.08339 412.633 31.5525C431.939 45.6561 446.539 65.2724 454.521 87.8302C462.503 110.388 463.494 134.835 457.365 157.967Z" fill="#F9C615"/>
<path d="M124.379 191.781C115.443 176.483 100.807 165.365 83.6889 160.873C66.5709 156.38 48.3721 158.879 33.0938 167.822C17.8154 176.765 6.70833 191.419 2.2145 208.561C-2.27933 225.704 0.207972 243.933 9.12956 259.239L76.482 374.669L191.731 307.211C207.006 298.262 218.107 283.603 222.594 266.457C227.08 249.312 224.584 231.084 215.655 215.781C206.726 200.479 192.095 189.354 174.978 184.853C157.862 180.353 139.661 182.845 124.379 191.781Z" fill="#3F3D56"/>
<path opacity="0.2" d="M247.216 57.5438L139.942 176.74C136.971 178.003 134.083 179.455 131.296 181.086C124.038 168.641 113.371 158.542 100.558 151.983C87.7449 145.424 73.3234 142.682 59.002 144.08C59.4687 138.093 60.3878 132.15 61.7512 126.301C61.9021 125.653 62.0638 125 62.2256 124.347C62.867 121.782 63.6002 119.232 64.4249 116.696C64.4896 116.502 64.5489 116.302 64.619 116.108C64.991 114.985 65.3809 113.864 65.7888 112.744C66.2524 111.47 66.7375 110.196 67.255 108.932C67.5084 108.301 67.7671 107.669 68.0367 107.043C68.2954 106.433 68.5596 105.822 68.8291 105.212C68.837 105.194 68.846 105.176 68.856 105.158C69.131 104.532 69.4167 103.911 69.7078 103.29C69.7401 103.215 69.7724 103.139 69.8102 103.069C70.0689 102.518 70.3277 101.973 70.5972 101.428C70.8991 100.807 71.2064 100.191 71.519 99.5757C72.1821 98.2637 72.8775 96.9679 73.5998 95.6722C73.8586 95.197 74.1281 94.7273 74.403 94.2576C74.7265 93.6907 75.0553 93.1238 75.3949 92.5623C75.5512 92.3031 75.7075 92.0386 75.8693 91.7794C76.7479 90.3271 77.6643 88.8891 78.6185 87.4655C78.8395 87.1308 79.0659 86.7961 79.2977 86.4613C79.6104 86.0024 79.9284 85.5435 80.2465 85.0899C80.6292 84.55 81.0119 84.0101 81.4055 83.4702C119.981 30.4997 194.129 18.8755 247.017 57.5114C247.071 57.4466 247.119 57.3764 247.173 57.3116L247.216 57.5438Z" fill="black"/>
<defs>
<linearGradient id="paint0_linear" x1="257.792" y1="398" x2="257.792" y2="0" gradientUnits="userSpaceOnUse">
<stop stop-color="#808080" stop-opacity="0.25"/>
<stop offset="0.53514" stop-color="#808080" stop-opacity="0.12"/>
<stop offset="1" stop-color="#808080" stop-opacity="0.1"/>
</linearGradient>
<linearGradient id="paint1_linear" x1="182479" y1="143771" x2="182479" y2="69278.4" gradientUnits="userSpaceOnUse">
<stop stop-color="#808080" stop-opacity="0.25"/>
<stop offset="0.53514" stop-color="#808080" stop-opacity="0.12"/>
<stop offset="1" stop-color="#808080" stop-opacity="0.1"/>
</linearGradient>
</defs>
</svg>
